<svg width="12" height="10" viewBox="0 0 12 10" fill="none" xmlns="http://www.w3.org/2000/svg">
<path d="M11.6699 4.28703L7.69235 0.309524C7.27959 -0.103235 6.64169 -0.103235 6.26645 0.309524C5.85369 0.722284 5.85369 1.36019 6.26645 1.73542L8.51787 3.98684L1.01315 3.98684C0.450293 3.98684 8.67681e-06 4.43712 8.62761e-06 4.99998C8.5784e-06 5.56283 0.450293 6.01311 1.01315 6.01311L8.51787 6.01312L6.26645 8.26453C5.85369 8.67729 5.85369 9.31519 6.26645 9.69043C6.67921 10.1032 7.31711 10.1032 7.69235 9.69043L11.6699 5.71293C11.8575 5.52531 11.97 5.26264 11.97 4.99998C11.97 4.73731 11.8575 4.47465 11.6699 4.28703Z" fill="white"/>
</svg>
