<svg width="24" height="24" viewBox="0 0 24 24" fill="none" xmlns="http://www.w3.org/2000/svg">
<path fill-rule="evenodd" clip-rule="evenodd" d="M17.1282 2C15.2872 2 13.7949 3.49238 13.7949 5.33333C13.7949 5.53426 13.8126 5.73104 13.8467 5.92218L8.99477 9.31854C8.97011 9.3358 8.94678 9.35424 8.92479 9.37374C8.35889 8.93074 7.64618 8.66667 6.87179 8.66667C5.03084 8.66667 3.53845 10.1591 3.53845 12C3.53845 13.841 5.03084 15.3333 6.87179 15.3333C7.64618 15.3333 8.35889 15.0693 8.92479 14.6263C8.94678 14.6458 8.97011 14.6642 8.99477 14.6815L13.8467 18.0778C13.8126 18.269 13.7949 18.4657 13.7949 18.6667C13.7949 20.5076 15.2872 22 17.1282 22C18.9691 22 20.4615 20.5076 20.4615 18.6667C20.4615 16.8257 18.9691 15.3333 17.1282 15.3333C16.0484 15.3333 15.0885 15.8467 14.4794 16.6428L9.88518 13.4268C10.0903 12.9943 10.2051 12.5105 10.2051 12C10.2051 11.4895 10.0903 11.0057 9.88518 10.5732L14.4794 7.35723C15.0885 8.15325 16.0484 8.66667 17.1282 8.66667C18.9691 8.66667 20.4615 7.17428 20.4615 5.33333C20.4615 3.49238 18.9691 2 17.1282 2ZM15.3333 5.33333C15.3333 4.34205 16.1369 3.53846 17.1282 3.53846C18.1195 3.53846 18.9231 4.34205 18.9231 5.33333C18.9231 6.32461 18.1195 7.12821 17.1282 7.12821C16.1369 7.12821 15.3333 6.32461 15.3333 5.33333ZM6.87179 10.2051C5.8805 10.2051 5.07691 11.0087 5.07691 12C5.07691 12.9913 5.8805 13.7949 6.87179 13.7949C7.86307 13.7949 8.66666 12.9913 8.66666 12C8.66666 11.0087 7.86307 10.2051 6.87179 10.2051ZM17.1282 16.8718C16.1369 16.8718 15.3333 17.6754 15.3333 18.6667C15.3333 19.6579 16.1369 20.4615 17.1282 20.4615C18.1195 20.4615 18.9231 19.6579 18.9231 18.6667C18.9231 17.6754 18.1195 16.8718 17.1282 16.8718Z" fill="#7B7B7B"/>
</svg>
