<svg width="22" height="20" viewBox="0 0 22 20" fill="none" xmlns="http://www.w3.org/2000/svg">
<path fill-rule="evenodd" clip-rule="evenodd" d="M14.9564 0.041429C14.5369 0.124017 14.3215 0.177798 14.0737 0.261677C13.7648 0.366268 13.2613 0.600253 13.2412 0.648566C13.2333 0.667512 13.2077 0.683013 13.1844 0.683013C13.1454 0.683013 12.8654 0.863777 12.6537 1.02555C12.5379 1.11404 11.9016 1.75063 11.7839 1.89578C11.7327 1.95886 11.667 2.05575 11.6378 2.11108C11.6087 2.16637 11.571 2.22131 11.5541 2.23315C11.4789 2.28581 11.1598 2.95629 11.0468 3.29887C10.879 3.80775 10.8227 4.05142 10.8227 4.26835C10.8227 4.4762 10.7364 4.9089 10.6316 5.22578C10.5558 5.45502 10.3088 5.98642 10.2612 6.02238C10.2456 6.03422 10.2089 6.08916 10.1798 6.14445C10.0812 6.33137 9.64855 6.79856 9.33714 7.05421C9.03155 7.30503 8.33877 7.665 7.93771 7.78131C7.14658 8.01077 6.54048 8.05581 5.81656 7.93882C5.20848 7.8406 4.8839 7.73915 4.32072 7.47145C4.12399 7.37793 3.71415 7.14024 3.67483 7.09692C3.66299 7.08387 3.58548 7.02656 3.5026 6.96955C3.26887 6.80881 2.76034 6.28896 2.53398 5.97932C2.31007 5.67303 2.00434 5.07864 1.91379 4.77365C1.88219 4.66708 1.83917 4.52369 1.81824 4.45506C1.79736 4.38638 1.78022 4.27658 1.78022 4.211C1.78022 4.0655 1.74117 3.95553 1.68949 3.95553C1.63653 3.95553 1.64088 5.35797 1.69526 5.80708C1.77355 6.45379 1.8182 6.70689 1.96098 7.31416C2.02359 7.58026 2.34309 8.5745 2.3831 8.62747C2.40096 8.65115 2.43016 8.71897 2.44799 8.77817C2.48837 8.91243 2.84917 9.65607 3.04961 10.0182C3.21035 10.3087 3.74739 11.1116 3.87652 11.2545C3.91954 11.3021 4.03179 11.4378 4.12601 11.5559C4.34794 11.8343 5.18484 12.671 5.4618 12.8913C5.58021 12.9855 5.68678 13.0736 5.69862 13.087C5.71047 13.1003 5.81704 13.1769 5.93545 13.2571C6.05386 13.3373 6.17637 13.4281 6.20763 13.4588C6.23893 13.4896 6.28117 13.5147 6.30145 13.5147C6.32174 13.5147 6.36398 13.5394 6.39528 13.5696C6.47003 13.6418 7.14516 14.0421 7.32411 14.1204C7.4011 14.154 7.46406 14.1962 7.46406 14.2142C7.46406 14.2321 7.48386 14.2467 7.50806 14.2467C7.53226 14.2467 7.71824 14.3242 7.92139 14.419C8.12455 14.5137 8.30845 14.5912 8.33011 14.5912C8.35177 14.5912 8.40314 14.6083 8.44426 14.6292C9.00042 14.9122 10.2733 15.209 11.4163 15.3223C12.328 15.4128 13.8005 15.3193 14.5258 15.125C14.5968 15.106 14.6188 15.1107 14.5904 15.1387C14.4905 15.2373 13.4006 15.6163 12.8357 15.7488C11.3761 16.0914 10.197 16.1411 8.73431 15.9216C8.02783 15.8156 6.93688 15.5195 6.4414 15.2993C6.36445 15.2651 6.22881 15.2059 6.13998 15.1678C5.90247 15.066 5.24995 14.7476 5.22497 14.7214C5.21313 14.709 5.11625 14.6521 5.00967 14.5949C4.81194 14.4889 4.11064 14.0241 3.95481 13.8959C3.12505 13.2128 2.86601 12.9684 2.40971 12.4382C1.26476 11.1079 0.642721 9.95292 0.11955 8.18611C0.0249914 7.86682 -0.0327511 8.84858 0.0200828 9.87619C0.0564679 10.5831 0.134965 11.1536 0.27043 11.6954C0.295619 11.7961 0.333297 11.9511 0.354181 12.0399C0.419071 12.3159 0.657663 13.0026 0.821762 13.3855C0.999253 13.7998 1.41422 14.6157 1.53233 14.7828C1.54994 14.8076 1.66521 14.983 1.78849 15.1725C1.91172 15.362 2.02342 15.5267 2.0366 15.5385C2.04982 15.5503 2.1135 15.631 2.17813 15.7178C2.24276 15.8045 2.32014 15.9019 2.35011 15.9341C2.38008 15.9663 2.51115 16.118 2.64141 16.2712C2.94179 16.6245 3.23472 16.9174 3.58798 17.2178C3.74119 17.3481 3.89289 17.4791 3.92509 17.5091C3.95735 17.5391 4.0547 17.6165 4.14147 17.6811C4.22819 17.7457 4.30888 17.8094 4.32072 17.8226C4.33257 17.8358 4.49727 17.9475 4.68673 18.0707C4.87619 18.194 5.05157 18.3093 5.07646 18.3269C5.43557 18.5809 6.68955 19.151 7.33488 19.3536C7.68543 19.4637 7.78304 19.4905 8.15301 19.5779C9.09808 19.8011 9.51747 19.8453 10.672 19.8434C11.6068 19.8418 12.0144 19.8081 12.7173 19.6744C12.934 19.6332 13.0529 19.607 13.4924 19.5036C13.7382 19.4458 14.587 19.1516 14.6313 19.1088C14.6538 19.0871 14.6976 19.0694 14.7286 19.0694C14.8566 19.0694 16.3747 18.2758 16.4635 18.1624C16.4753 18.1473 16.5322 18.11 16.5899 18.0796C16.6476 18.0492 16.7155 18.0072 16.7406 17.9863C16.7658 17.9655 16.922 17.8476 17.0878 17.7244C17.408 17.4865 17.5162 17.3972 17.859 17.0886C18.1305 16.8443 18.286 16.6888 18.5303 16.4173C18.8389 16.0745 18.9281 15.9663 19.166 15.6461C19.2892 15.4804 19.4071 15.3241 19.428 15.299C19.4489 15.2738 19.4909 15.2059 19.5213 15.1482C19.5517 15.0906 19.5885 15.0336 19.6029 15.0218C19.7241 14.9223 20.3271 13.7608 20.5585 13.181C20.5798 13.1277 20.6152 13.0405 20.6374 12.9872C20.6882 12.8648 20.8274 12.4334 20.8978 12.1799C20.9274 12.0733 20.9671 11.9377 20.986 11.8784C21.0325 11.7333 21.183 10.9047 21.2403 10.479C21.2987 10.0449 21.3004 8.34039 21.2428 7.96358C21.1249 7.1932 21.0923 7.01812 20.9853 6.58215C20.965 6.49926 20.8767 6.20426 20.789 5.92657C20.6491 5.48323 20.6294 5.36675 20.627 4.97099L20.6244 4.52029L21.267 3.81808C21.6205 3.43188 21.9342 3.09008 21.9643 3.05856C22.04 2.97915 21.9924 2.9221 21.8505 2.9221C21.7848 2.9221 21.6261 2.90414 21.4978 2.88218C21.07 2.80894 20.707 2.75318 20.4875 2.72704C20.1554 2.68747 20.133 2.66155 20.2402 2.44074C20.2898 2.33843 20.5067 1.89311 20.7222 1.45119C20.9376 1.00927 21.1139 0.633753 21.1139 0.616659C21.1139 0.572609 20.7127 0.608434 19.413 0.768529C18.6949 0.856973 18.4794 0.869116 18.4507 0.822655C18.4351 0.797465 18.213 0.670009 17.9571 0.53941C17.426 0.268308 17.0924 0.158808 16.4394 0.0410841C16.1344 -0.0138597 15.2362 -0.0136439 14.9564 0.041429ZM16.265 1.73861C16.6165 1.90538 16.851 2.2614 16.851 2.62809C16.851 3.11936 16.3716 3.61105 15.8925 3.61105C15.6882 3.61105 15.2799 3.41789 15.1683 3.26847C15.1233 3.20823 15.0717 3.13955 15.0537 3.11587C14.9157 2.93442 14.8776 2.54158 14.9761 2.31376C15.2237 1.74085 15.7628 1.50028 16.265 1.73861Z" fill="#424300"/>
</svg>
