<svg width="76" height="69" viewBox="0 0 76 69" fill="none" xmlns="http://www.w3.org/2000/svg">
<path fill-rule="evenodd" clip-rule="evenodd" d="M51.6674 0.143118C50.2183 0.428421 49.4741 0.614209 48.618 0.903974C47.5512 1.26529 45.8117 2.0736 45.7422 2.24049C45.7149 2.30595 45.6265 2.3595 45.5459 2.3595C45.4114 2.3595 44.444 2.98395 43.7127 3.5428C43.3126 3.84849 41.1145 6.04761 40.7079 6.54904C40.5311 6.76696 40.3041 7.10165 40.2034 7.2928C40.1027 7.48379 39.9725 7.6736 39.9142 7.7145C39.6543 7.89643 38.5518 10.2126 38.1616 11.3961C37.5819 13.154 37.3874 13.9958 37.3874 14.7452C37.3874 15.4632 37.0891 16.958 36.7274 18.0526C36.4656 18.8446 35.6121 20.6803 35.4478 20.8045C35.3937 20.8454 35.2671 21.0352 35.1664 21.2262C34.8261 21.872 33.3313 23.4859 32.2555 24.369C31.1998 25.2355 28.8066 26.479 27.4211 26.8808C24.6881 27.6735 22.5943 27.8291 20.0935 27.4249C17.9929 27.0857 16.8716 26.7352 14.9261 25.8104C14.2465 25.4873 12.8307 24.6662 12.6948 24.5166C12.6539 24.4715 12.3862 24.2735 12.0998 24.0766C11.2924 23.5213 9.53569 21.7254 8.75371 20.6558C7.98021 19.5977 6.92409 17.5444 6.61126 16.4908C6.50208 16.1226 6.35348 15.6273 6.28119 15.3902C6.20904 15.1529 6.14984 14.7736 6.14984 14.547C6.14984 14.0444 6.01492 13.6645 5.83642 13.6645C5.65346 13.6645 5.66848 18.5093 5.85636 20.0608C6.12678 22.2949 6.28104 23.1692 6.77429 25.267C6.99058 26.1863 8.0943 29.621 8.23249 29.8039C8.29422 29.8857 8.39508 30.12 8.45666 30.3245C8.59618 30.7883 9.84256 33.3573 10.535 34.6084C11.0903 35.6119 12.9455 38.3853 13.3916 38.8792C13.5402 39.0437 13.928 39.5122 14.2535 39.9204C15.0201 40.8821 17.9112 43.7723 18.868 44.5335C19.277 44.8589 19.6452 45.1631 19.6861 45.2094C19.727 45.2556 20.0952 45.5203 20.5042 45.7972C20.9133 46.0744 21.3365 46.3879 21.4445 46.494C21.5526 46.6002 21.6986 46.6871 21.7686 46.6871C21.8387 46.6871 21.9846 46.7724 22.0927 46.8767C22.351 47.1262 24.6832 48.5091 25.3014 48.7795C25.5674 48.8957 25.7849 49.0415 25.7849 49.1034C25.7849 49.1652 25.8533 49.2158 25.9369 49.2158C26.0205 49.2158 26.6629 49.4836 27.3647 49.8108C28.0666 50.1381 28.7019 50.4058 28.7767 50.4058C28.8515 50.4058 29.029 50.4649 29.171 50.5372C31.0923 51.5146 35.4895 52.5401 39.4381 52.9316C42.5877 53.244 47.6744 52.9212 50.1799 52.25C50.4252 52.1843 50.5011 52.2003 50.403 52.2972C50.0581 52.6377 46.2929 53.947 44.3415 54.405C39.2991 55.5884 35.226 55.7601 30.173 55.0018C27.7325 54.6355 23.9637 53.6127 22.2521 52.8519C21.9862 52.7338 21.5177 52.5294 21.2108 52.3979C20.3903 52.0459 18.1361 50.9461 18.0499 50.8556C18.009 50.8128 17.6743 50.6162 17.3061 50.4188C16.623 50.0525 14.2004 48.4469 13.662 48.0038C10.7956 45.644 9.90073 44.7997 8.32442 42.9683C4.36915 38.3725 2.2203 34.3827 0.412989 28.2792C0.0863339 27.1762 -0.11314 30.5677 0.0693767 34.1177C0.195071 36.5599 0.466242 38.5306 0.93421 40.4024C1.02123 40.75 1.15139 41.2856 1.22353 41.5924C1.4477 42.5459 2.27192 44.918 2.83881 46.2408C3.45196 47.6719 4.88546 50.4906 5.29348 51.0676C5.35432 51.1536 5.75253 51.7594 6.1784 52.4139C6.60412 53.0684 6.98998 53.6374 7.0355 53.6783C7.08116 53.7192 7.30117 53.998 7.52444 54.2976C7.74771 54.5973 8.01502 54.9336 8.11855 55.045C8.22208 55.1563 8.67487 55.6804 9.12484 56.2096C10.1625 57.43 11.1745 58.4419 12.3948 59.4796C12.9241 59.9296 13.4481 60.3823 13.5594 60.4859C13.6708 60.5894 14.0071 60.8567 14.3069 61.08C14.6064 61.3033 14.8852 61.5233 14.9261 61.5689C14.967 61.6144 15.536 62.0003 16.1905 62.426C16.845 62.8519 17.4508 63.2501 17.5368 63.3109C18.7774 64.1883 23.1093 66.1577 25.3386 66.8579C26.5496 67.2382 26.8868 67.3308 28.1649 67.6326C31.4296 68.4036 32.8785 68.5563 36.8668 68.5496C40.096 68.5443 41.5043 68.428 43.9324 67.9659C44.6809 67.8236 45.0919 67.733 46.6099 67.376C47.459 67.1764 50.3913 66.16 50.5443 66.0122C50.622 65.9373 50.7734 65.8758 50.8805 65.8758C51.3228 65.8758 56.5669 63.1344 56.8737 62.7429C56.9146 62.6907 57.1112 62.5618 57.3105 62.4567C57.5099 62.3516 57.7442 62.2066 57.8312 62.1345C57.9182 62.0623 58.4579 61.655 59.0305 61.2295C60.1365 60.4076 60.5103 60.0994 61.6947 59.0333C62.6324 58.1893 63.1697 57.652 64.0137 56.7143C65.0798 55.53 65.388 55.1562 66.2098 54.0502C66.6354 53.4775 67.0427 52.9378 67.1148 52.8508C67.187 52.7638 67.332 52.5295 67.437 52.3302C67.5422 52.1309 67.6691 51.9342 67.7189 51.8933C68.1376 51.5497 70.2207 47.5372 71.0201 45.5342C71.0936 45.3501 71.2162 45.049 71.2926 44.8649C71.4683 44.442 71.9491 42.9515 72.1923 42.0758C72.2945 41.7076 72.4318 41.2391 72.4971 41.0346C72.6574 40.5333 73.1776 37.6706 73.3754 36.2002C73.5773 34.7006 73.5831 28.8122 73.3839 27.5105C72.9768 24.8492 72.8642 24.2444 72.4947 22.7383C72.4245 22.4519 72.1192 21.4328 71.8165 20.4736C71.3331 18.942 71.2649 18.5397 71.2569 17.1725L71.2477 15.6155L73.4678 13.1897C74.6889 11.8556 75.7727 10.6748 75.8765 10.5659C76.138 10.2916 75.9736 10.0945 75.4835 10.0945C75.2565 10.0945 74.7082 10.0325 74.2651 9.95662C72.7871 9.70359 71.533 9.51096 70.7747 9.42067C69.6277 9.28397 69.5503 9.19442 69.9204 8.43163C70.0919 8.0782 70.8412 6.53982 71.5855 5.0132C72.3297 3.48658 72.9387 2.18933 72.9387 2.13027C72.9387 1.9781 71.5526 2.10186 67.0631 2.65491C64.5824 2.96045 63.8377 3.00239 63.7385 2.84189C63.6848 2.75487 62.9175 2.31457 62.0335 1.86341C60.1988 0.926881 59.0465 0.54861 56.7904 0.141926C55.7368 -0.0478789 52.6341 -0.0471335 51.6674 0.143118ZM56.1881 6.00611C57.4022 6.58222 58.2124 7.81208 58.2124 9.07884C58.2124 10.7759 56.5562 12.4745 54.9014 12.4745C54.1954 12.4745 52.785 11.8072 52.3994 11.2911C52.2441 11.083 52.0659 10.8457 52.0037 10.7639C51.5267 10.1371 51.3953 8.78 51.7354 7.99296C52.5907 6.01384 54.4531 5.18277 56.1881 6.00611Z" fill="#EAE8FF"/>
</svg>
