<svg width="18" height="18" viewBox="0 0 18 18" fill="none" xmlns="http://www.w3.org/2000/svg">
<path d="M9 0C10.6607 0 11.9964 0 13.0861 0.0790468L9.98875 4.72502H5.76125L8.91126 0H9Z" fill="#1E1E1E"/>
<path d="M1.31802 1.31802C2.44515 0.190889 4.15975 0.0276466 7.2861 0.00400406L4.13875 4.72502H0.0937618C0.226286 3.13733 0.546122 2.08992 1.31802 1.31802Z" fill="#1E1E1E"/>
<path fill-rule="evenodd" clip-rule="evenodd" d="M0 9C0 7.88693 0 6.91987 0.0238 6.07502H17.9762C18 6.91987 18 7.88693 18 9C18 13.2426 18 15.364 16.682 16.682C15.364 18 13.2426 18 9 18C4.75736 18 2.63604 18 1.31802 16.682C0 15.364 0 13.2426 0 9ZM9.91257 9.52669C11.1042 10.2955 11.7 10.68 11.7 11.25C11.7 11.82 11.1042 12.2044 9.91258 12.9733C8.70469 13.7527 8.10072 14.1424 7.65036 13.8562C7.2 13.5701 7.2 12.7967 7.2 11.25C7.2 9.70326 7.2 8.92988 7.65036 8.64377C8.10072 8.35765 8.70467 8.74733 9.91257 9.52669Z" fill="#1E1E1E"/>
<path d="M17.9062 4.72502C17.7737 3.13733 17.4539 2.08992 16.682 1.31802C16.1444 0.780428 15.4732 0.462108 14.5788 0.273624L11.6112 4.72502H17.9062Z" fill="#1E1E1E"/>
</svg>
