<svg width="24" height="24" viewBox="0 0 24 24" fill="none" xmlns="http://www.w3.org/2000/svg">
<path d="M9.20935 5.72092C8.82404 5.72092 8.51168 6.03328 8.51168 6.41859C8.51168 6.80391 8.82404 7.11627 9.20935 7.11627H14.7907C15.1761 7.11627 15.4884 6.80391 15.4884 6.41859C15.4884 6.03328 15.1761 5.72092 14.7907 5.72092H9.20935Z" fill="#7B7B7B"/>
<path fill-rule="evenodd" clip-rule="evenodd" d="M11.9466 2C10.0186 1.99999 8.49973 1.99998 7.31287 2.16127C6.09421 2.32689 5.12201 2.67412 4.35805 3.44636C3.59513 4.21755 3.25301 5.19722 3.08965 6.42549C2.93028 7.62372 2.93029 9.15777 2.9303 11.108V15.8502C2.93029 17.2526 2.93028 18.3629 3.01961 19.1989C3.10789 20.025 3.29725 20.7702 3.83805 21.2686C4.27193 21.6685 4.82063 21.9205 5.40625 21.9876C6.13877 22.0714 6.82274 21.7216 7.4965 21.2443C8.17831 20.7614 9.0054 20.0298 10.0489 19.1068L10.0829 19.0768C10.5667 18.6489 10.8942 18.3601 11.1675 18.1603C11.4316 17.9672 11.5929 17.8974 11.7288 17.87C11.9079 17.8339 12.0922 17.8339 12.2713 17.87C12.4072 17.8974 12.5685 17.9672 12.8326 18.1603C13.1059 18.3601 13.4334 18.6489 13.9172 19.0768L13.9512 19.1069C14.9947 20.0298 15.8218 20.7614 16.5036 21.2443C17.1773 21.7216 17.8613 22.0714 18.5938 21.9876C19.1795 21.9205 19.7282 21.6685 20.162 21.2686C20.7028 20.7702 20.8922 20.025 20.9805 19.1989C21.0698 18.3629 21.0698 17.2526 21.0698 15.8502V11.1079C21.0698 9.15777 21.0698 7.62371 20.9104 6.42549C20.7471 5.19722 20.405 4.21755 19.642 3.44636C18.8781 2.67412 17.9059 2.32689 16.6872 2.16127C15.5004 1.99998 13.9815 1.99999 12.0535 2H11.9466ZM5.35001 4.42768C5.81212 3.96057 6.43961 3.68813 7.50078 3.54391C8.5828 3.39686 10.0068 3.39535 12 3.39535C13.9933 3.39535 15.4173 3.39686 16.4993 3.54391C17.5605 3.68813 18.188 3.96057 18.6501 4.42768C19.1132 4.89584 19.3841 5.53319 19.5273 6.60946C19.673 7.70503 19.6744 9.14625 19.6744 11.1605V15.8055C19.6744 17.2625 19.6735 18.2978 19.593 19.0506C19.5106 19.8221 19.3585 20.1116 19.2164 20.2426C18.9989 20.443 18.7254 20.568 18.4352 20.6013C18.2495 20.6225 17.9382 20.5506 17.3101 20.1057C16.6975 19.6717 15.9267 18.9913 14.8416 18.0316L14.8173 18.0101C14.364 17.6092 13.9881 17.2767 13.6562 17.034C13.3093 16.7803 12.9593 16.5852 12.5469 16.5021C12.1859 16.4294 11.8142 16.4294 11.4532 16.5021C11.0408 16.5852 10.6908 16.7803 10.3439 17.034C10.012 17.2767 9.63606 17.6092 9.1828 18.0101L9.15844 18.0316C8.07342 18.9913 7.30263 19.6717 6.68996 20.1057C6.06188 20.5506 5.75059 20.6225 5.56488 20.6013C5.27465 20.568 5.00115 20.443 4.78366 20.2426C4.64158 20.1116 4.4895 19.8221 4.40706 19.0506C4.32661 18.2978 4.32564 17.2625 4.32564 15.8055V11.1605C4.32564 9.14624 4.32709 7.70503 4.47281 6.60946C4.61596 5.53319 4.88688 4.89584 5.35001 4.42768Z" fill="#7B7B7B"/>
</svg>
