<svg width="16" height="18" viewBox="0 0 16 18" fill="none" xmlns="http://www.w3.org/2000/svg">
<path d="M7.68293 0C4.89456 0 2.63415 2.26042 2.63415 5.04878V7.68293C2.63415 10.4713 4.89456 12.7317 7.68293 12.7317C10.2481 12.7317 12.3665 10.8187 12.6891 8.34146L8.56098 8.34146C8.19728 8.34146 7.90244 8.04663 7.90244 7.68293C7.90244 7.31923 8.19728 7.02439 8.56098 7.02439L12.7317 7.02439V5.70732H8.56098C8.19728 5.70732 7.90244 5.41248 7.90244 5.04878C7.90244 4.68508 8.19728 4.39024 8.56098 4.39024H12.6891C12.3665 1.91304 10.2481 0 7.68293 0Z" fill="#1E1E1E"/>
<path fill-rule="evenodd" clip-rule="evenodd" d="M0.658537 6.14634C1.02224 6.14634 1.31707 6.44118 1.31707 6.80488V7.68293C1.31707 11.1987 4.16716 14.0488 7.68293 14.0488C11.1987 14.0488 14.0488 11.1987 14.0488 7.68293V6.80488C14.0488 6.44118 14.3436 6.14634 14.7073 6.14634C15.071 6.14634 15.3659 6.44118 15.3659 6.80488V7.68293C15.3659 11.7043 12.2764 15.004 8.34146 15.338V17.3415C8.34146 17.7052 8.04663 18 7.68293 18C7.31923 18 7.02439 17.7052 7.02439 17.3415V15.338C3.0895 15.004 0 11.7043 0 7.68293V6.80488C0 6.44118 0.294837 6.14634 0.658537 6.14634Z" fill="#1E1E1E"/>
</svg>
