<svg width="24" height="24" viewBox="0 0 24 24" fill="none" xmlns="http://www.w3.org/2000/svg">
<path d="M9.20929 5.72092C8.82398 5.72092 8.51162 6.03328 8.51162 6.41859C8.51162 6.80391 8.82398 7.11627 9.20929 7.11627H14.7907C15.176 7.11627 15.4883 6.80391 15.4883 6.41859C15.4883 6.03328 15.176 5.72092 14.7907 5.72092H9.20929Z" fill="white"/>
<path fill-rule="evenodd" clip-rule="evenodd" d="M11.9465 2C10.0185 1.99999 8.49967 1.99998 7.31281 2.16127C6.09415 2.32689 5.12195 2.67412 4.35799 3.44636C3.59507 4.21755 3.25295 5.19722 3.08959 6.42549C2.93021 7.62372 2.93022 9.15777 2.93024 11.108V15.8502C2.93023 17.2526 2.93022 18.3629 3.01955 19.1989C3.10783 20.025 3.29719 20.7702 3.83799 21.2686C4.27187 21.6685 4.82057 21.9205 5.40619 21.9876C6.13871 22.0714 6.82268 21.7216 7.49644 21.2443C8.17825 20.7614 9.00534 20.0298 10.0489 19.1068L10.0828 19.0768C10.5666 18.6489 10.8941 18.3601 11.1674 18.1603C11.4315 17.9672 11.5928 17.8974 11.7287 17.87C11.9078 17.8339 12.0921 17.8339 12.2713 17.87C12.4072 17.8974 12.5684 17.9672 12.8325 18.1603C13.1058 18.3601 13.4334 18.6489 13.9171 19.0768L13.9512 19.1069C14.9946 20.0298 15.8217 20.7614 16.5035 21.2443C17.1773 21.7216 17.8613 22.0714 18.5938 21.9876C19.1794 21.9205 19.7281 21.6685 20.162 21.2686C20.7028 20.7702 20.8921 20.025 20.9804 19.1989C21.0697 18.3629 21.0697 17.2526 21.0697 15.8502V11.1079C21.0697 9.15777 21.0698 7.62371 20.9104 6.42549C20.747 5.19722 20.4049 4.21755 19.642 3.44636C18.878 2.67412 17.9058 2.32689 16.6872 2.16127C15.5003 1.99998 13.9814 1.99999 12.0535 2H11.9465ZM5.34995 4.42768C5.81206 3.96057 6.43954 3.68813 7.50072 3.54391C8.58274 3.39686 10.0067 3.39535 12 3.39535C13.9932 3.39535 15.4172 3.39686 16.4993 3.54391C17.5604 3.68813 18.1879 3.96057 18.65 4.42768C19.1132 4.89584 19.3841 5.53319 19.5272 6.60946C19.6729 7.70503 19.6744 9.14625 19.6744 11.1605V15.8055C19.6744 17.2625 19.6734 18.2978 19.593 19.0506C19.5105 19.8221 19.3584 20.1116 19.2164 20.2426C18.9989 20.443 18.7254 20.568 18.4352 20.6013C18.2494 20.6225 17.9382 20.5506 17.3101 20.1057C16.6974 19.6717 15.9266 18.9913 14.8416 18.0316L14.8172 18.0101C14.364 17.6092 13.9881 17.2767 13.6562 17.034C13.3092 16.7803 12.9593 16.5852 12.5468 16.5021C12.1858 16.4294 11.8141 16.4294 11.4532 16.5021C11.0407 16.5852 10.6908 16.7803 10.3438 17.034C10.0119 17.2767 9.636 17.6092 9.18274 18.0101L9.15838 18.0316C8.07336 18.9913 7.30256 19.6717 6.6899 20.1057C6.06182 20.5506 5.75052 20.6225 5.56482 20.6013C5.27459 20.568 5.00109 20.443 4.7836 20.2426C4.64152 20.1116 4.48944 19.8221 4.40699 19.0506C4.32655 18.2978 4.32558 17.2625 4.32558 15.8055V11.1605C4.32558 9.14624 4.32703 7.70503 4.47275 6.60946C4.6159 5.53319 4.88681 4.89584 5.34995 4.42768Z" fill="white"/>
</svg>
