<svg width="19" height="24" viewBox="0 0 19 24" fill="none" xmlns="http://www.w3.org/2000/svg">
<path fill-rule="evenodd" clip-rule="evenodd" d="M9.07317 0C6.00193 0 3.5122 2.48973 3.5122 5.56098C3.5122 8.63222 6.00193 11.122 9.07317 11.122C12.1444 11.122 14.6341 8.63222 14.6341 5.56098C14.6341 2.48973 12.1444 0 9.07317 0ZM5.26829 5.56098C5.26829 3.4596 6.97179 1.7561 9.07317 1.7561C11.1745 1.7561 12.878 3.4596 12.878 5.56098C12.878 7.66235 11.1745 9.36585 9.07317 9.36585C6.97179 9.36585 5.26829 7.66235 5.26829 5.56098Z" fill="#424300"/>
<path fill-rule="evenodd" clip-rule="evenodd" d="M9.07317 12.878C6.68566 12.878 4.481 13.4292 2.84271 14.3653C1.22926 15.2873 0 16.6948 0 18.439C0 20.1833 1.22926 21.5907 2.84271 22.5127C4.481 23.4489 6.68566 24 9.07317 24C11.4607 24 13.6653 23.4489 15.3036 22.5127C16.9171 21.5907 18.1463 20.1833 18.1463 18.439C18.1463 16.6948 16.9171 15.2873 15.3036 14.3653C13.6653 13.4292 11.4607 12.878 9.07317 12.878ZM1.7561 18.439C1.7561 17.5969 2.36137 16.663 3.71398 15.8901C5.04174 15.1313 6.93464 14.6341 9.07317 14.6341C11.2117 14.6341 13.1046 15.1313 14.4324 15.8901C15.785 16.663 16.3902 17.5969 16.3902 18.439C16.3902 19.2811 15.785 20.2151 14.4324 20.988C13.1046 21.7467 11.2117 22.2439 9.07317 22.2439C6.93464 22.2439 5.04174 21.7467 3.71398 20.988C2.36137 20.2151 1.7561 19.2811 1.7561 18.439Z" fill="#424300"/>
</svg>
