<svg width="24" height="24" viewBox="0 0 24 24" fill="none" xmlns="http://www.w3.org/2000/svg">
<path fill-rule="evenodd" clip-rule="evenodd" d="M11.4419 1.67442C6.04745 1.67442 1.67442 6.04745 1.67442 11.4419C1.67442 16.8363 6.04745 21.2093 11.4419 21.2093C16.8363 21.2093 21.2093 16.8363 21.2093 11.4419C21.2093 6.04745 16.8363 1.67442 11.4419 1.67442ZM0 11.4419C0 5.1227 5.1227 0 11.4419 0C17.761 0 22.8837 5.1227 22.8837 11.4419C22.8837 14.3001 21.8357 16.9136 20.1029 18.9189L23.7548 22.5708C24.0817 22.8977 24.0817 23.4278 23.7548 23.7548C23.4278 24.0817 22.8977 24.0817 22.5708 23.7548L18.9189 20.1029C16.9136 21.8357 14.3001 22.8837 11.4419 22.8837C5.1227 22.8837 0 17.761 0 11.4419Z" fill="#A3A3A3"/>
</svg>
