<svg width="12" height="10" viewBox="0 0 12 10" fill="none" xmlns="http://www.w3.org/2000/svg">
<path d="M11.6698 4.28705L7.69232 0.309568C7.27956 -0.10319 6.64166 -0.10319 6.26643 0.309568C5.85367 0.722326 5.85367 1.36023 6.26643 1.73546L8.51783 3.98687L1.01314 3.98687C0.450291 3.98687 8.67677e-06 4.43715 8.62757e-06 5C8.57836e-06 5.56285 0.450291 6.01313 1.01314 6.01313L8.51783 6.01313L6.26642 8.26454C5.85367 8.6773 5.85367 9.3152 6.26642 9.69043C6.67918 10.1032 7.31708 10.1032 7.69232 9.69043L11.6698 5.71295C11.8574 5.52533 11.97 5.26266 11.97 5C11.97 4.73734 11.8574 4.47467 11.6698 4.28705Z" fill="black"/>
</svg>
