<svg width="18" height="18" viewBox="0 0 18 18" fill="none" xmlns="http://www.w3.org/2000/svg">
<path d="M17.9998 9.62806C17.9984 10.9507 17.9884 12.0748 17.9132 12.9973C17.826 14.0677 17.6473 14.9621 17.2473 15.705C17.0708 16.0326 16.854 16.3261 16.59 16.59C15.8409 17.3392 14.8864 17.6785 13.6769 17.8411C12.4952 18 10.9806 18 9.04803 18H8.95197C7.01936 18 5.50481 18 4.3231 17.8411C3.11356 17.6785 2.15912 17.3392 1.40998 16.59C0.745835 15.9259 0.402864 15.0993 0.22048 14.0739C0.041316 13.0665 0.0085414 11.8133 0.00173243 10.2571C1.72772e-07 9.86121 1.72742e-07 9.44254 1.72742e-07 9.00084V8.95196C-1.04289e-05 7.01936 -1.87352e-05 5.50481 0.158858 4.3231C0.321477 3.11356 0.660832 2.15912 1.40998 1.40998C2.15912 0.660832 3.11356 0.321477 4.3231 0.158858C5.374 0.0175679 6.72612 0.00193457 8.37182 0.000212353C8.71861 -0.000150552 9 0.281123 9 0.627906C9 0.97469 8.71848 1.25568 8.3717 1.25604C6.70274 1.25781 5.46076 1.27302 4.49044 1.40347C3.42015 1.54737 2.77489 1.82105 2.29797 2.29797C1.82105 2.77489 1.54737 3.42015 1.40347 4.49044C1.25715 5.57879 1.25581 7.00893 1.25581 9C1.25581 9.24315 1.25581 9.4783 1.2561 9.70598L2.09426 8.9726C2.85719 8.30504 4.00702 8.34333 4.72385 9.06016L8.31525 12.6516C8.89061 13.2269 9.7963 13.3054 10.462 12.8375L10.7117 12.6621C11.6696 11.9888 12.9657 12.0668 13.836 12.8501L16.2058 14.9828C16.4443 14.4819 16.5859 13.8238 16.6615 12.8953C16.7328 12.0205 16.7426 10.9579 16.744 9.6281C16.7443 9.28131 17.0253 9 17.3721 9C17.7189 9 18.0001 9.28128 17.9998 9.62806Z" fill="#E2D213"/>
<path fill-rule="evenodd" clip-rule="evenodd" d="M13.95 8.1C12.0408 8.1 11.0862 8.1 10.4931 7.50689C9.9 6.91378 9.9 5.95919 9.9 4.05C9.9 2.14081 9.9 1.18622 10.4931 0.593109C11.0862 0 12.0408 0 13.95 0C15.8592 0 16.8138 0 17.4069 0.593109C18 1.18622 18 2.14081 18 4.05C18 5.95919 18 6.91378 17.4069 7.50689C16.8138 8.1 15.8592 8.1 13.95 8.1ZM15.7773 3.1227L14.4273 1.7727C14.1637 1.5091 13.7363 1.5091 13.4727 1.7727L12.1227 3.1227C11.8591 3.38631 11.8591 3.81369 12.1227 4.0773C12.3863 4.3409 12.8137 4.3409 13.0773 4.0773L13.275 3.87959V5.85C13.275 6.22279 13.5772 6.525 13.95 6.525C14.3228 6.525 14.625 6.22279 14.625 5.85V3.87959L14.8227 4.0773C15.0863 4.3409 15.5137 4.3409 15.7773 4.0773C16.0409 3.81369 16.0409 3.38631 15.7773 3.1227Z" fill="#E2D213"/>
</svg>
