<svg width="22" height="20" viewBox="0 0 22 20" fill="none" xmlns="http://www.w3.org/2000/svg">
<path fill-rule="evenodd" clip-rule="evenodd" d="M14.9563 0.0414289C14.5369 0.124017 14.3214 0.177797 14.0736 0.261677C13.7648 0.366267 13.2613 0.600251 13.2412 0.648564C13.2332 0.66751 13.2077 0.683011 13.1843 0.683011C13.1454 0.683011 12.8653 0.863774 12.6537 1.02555C12.5378 1.11403 11.9016 1.75062 11.7839 1.89577C11.7327 1.95886 11.667 2.05574 11.6378 2.11107C11.6087 2.16636 11.571 2.2213 11.5541 2.23314C11.4789 2.28581 11.1597 2.95628 11.0468 3.29886C10.879 3.80774 10.8227 4.05141 10.8227 4.26834C10.8227 4.47619 10.7363 4.90889 10.6316 5.22576C10.5558 5.45501 10.3087 5.9864 10.2612 6.02236C10.2455 6.0342 10.2089 6.08914 10.1797 6.14443C10.0812 6.33135 9.64852 6.79855 9.33711 7.05419C9.03152 7.30501 8.33874 7.66498 7.93769 7.78129C7.14656 8.01075 6.54046 8.05579 5.81655 7.9388C5.20846 7.84058 4.88388 7.73913 4.32071 7.47143C4.12397 7.37791 3.71414 7.14022 3.67482 7.0969C3.66298 7.08385 3.58547 7.02654 3.50259 6.96953C3.26886 6.80879 2.76033 6.28894 2.53397 5.9793C2.31006 5.67302 2.00434 5.07863 1.91379 4.77364C1.88218 4.66707 1.83916 4.52368 1.81824 4.45504C1.79735 4.38637 1.78022 4.27656 1.78022 4.21098C1.78022 4.06549 1.74116 3.95551 1.68949 3.95551C1.63653 3.95551 1.64088 5.35795 1.69526 5.80706C1.77354 6.45377 1.81819 6.70687 1.96098 7.31414C2.02359 7.58024 2.34309 8.57448 2.38309 8.62744C2.40096 8.65113 2.43015 8.71894 2.44798 8.77815C2.48837 8.91241 2.84916 9.65604 3.0496 10.0182C3.21034 10.3087 3.74738 11.1115 3.87651 11.2545C3.91953 11.3021 4.03178 11.4377 4.126 11.5559C4.34792 11.8343 5.18482 12.6709 5.46178 12.8913C5.58019 12.9855 5.68677 13.0735 5.69861 13.0869C5.71045 13.1003 5.81702 13.1769 5.93543 13.2571C6.05385 13.3373 6.17635 13.4281 6.20761 13.4588C6.23891 13.4895 6.28116 13.5147 6.30144 13.5147C6.32172 13.5147 6.36396 13.5394 6.39526 13.5696C6.47001 13.6418 7.14514 14.0421 7.32409 14.1204C7.40108 14.154 7.46404 14.1962 7.46404 14.2141C7.46404 14.232 7.48384 14.2467 7.50804 14.2467C7.53224 14.2467 7.71822 14.3242 7.92137 14.4189C8.12452 14.5136 8.30843 14.5911 8.33009 14.5911C8.35175 14.5911 8.40312 14.6082 8.44424 14.6292C9.00039 14.9121 10.2733 15.209 11.4163 15.3223C12.328 15.4127 13.8005 15.3193 14.5258 15.125C14.5968 15.106 14.6187 15.1106 14.5903 15.1386C14.4905 15.2372 13.4006 15.6162 12.8357 15.7488C11.3761 16.0914 10.197 16.1411 8.73428 15.9216C8.02781 15.8155 6.93686 15.5195 6.44138 15.2992C6.36443 15.265 6.2288 15.2059 6.13997 15.1678C5.90245 15.0659 5.24993 14.7475 5.22496 14.7214C5.21311 14.709 5.11623 14.652 5.00966 14.5949C4.81193 14.4889 4.11063 14.0241 3.95479 13.8958C3.12504 13.2127 2.866 12.9683 2.4097 12.4382C1.26475 11.1078 0.642719 9.95289 0.119549 8.18609C0.0249914 7.8668 -0.032751 8.84855 0.0200827 9.87616C0.0564678 10.5831 0.134965 11.1536 0.270429 11.6954C0.295619 11.796 0.333296 11.9511 0.35418 12.0399C0.41907 12.3159 0.657661 13.0026 0.82176 13.3855C0.99925 13.7998 1.41421 14.6157 1.53232 14.7827C1.54993 14.8076 1.6652 14.983 1.78848 15.1724C1.91172 15.3619 2.02341 15.5266 2.03659 15.5385C2.04981 15.5503 2.11349 15.631 2.17813 15.7177C2.24276 15.8045 2.32014 15.9018 2.3501 15.9341C2.38007 15.9663 2.51115 16.118 2.6414 16.2712C2.94178 16.6244 3.23471 16.9174 3.58797 17.2178C3.74118 17.348 3.89287 17.4791 3.92508 17.5091C3.95733 17.539 4.05469 17.6164 4.14146 17.681C4.22818 17.7457 4.30887 17.8094 4.32071 17.8226C4.33255 17.8358 4.49725 17.9474 4.68672 18.0707C4.87618 18.194 5.05156 18.3092 5.07644 18.3268C5.43556 18.5808 6.68953 19.1509 7.33486 19.3536C7.6854 19.4637 7.78302 19.4905 8.15299 19.5778C9.09805 19.801 9.51745 19.8452 10.672 19.8433C11.6067 19.8417 12.0144 19.8081 12.7173 19.6743C12.9339 19.6331 13.0529 19.6069 13.4923 19.5036C13.7381 19.4458 14.5869 19.1516 14.6312 19.1088C14.6537 19.0871 14.6976 19.0693 14.7286 19.0693C14.8566 19.0693 16.3746 18.2757 16.4634 18.1624C16.4753 18.1473 16.5322 18.11 16.5899 18.0795C16.6476 18.0491 16.7154 18.0072 16.7406 17.9863C16.7658 17.9654 16.922 17.8475 17.0878 17.7243C17.4079 17.4864 17.5161 17.3972 17.859 17.0886C18.1304 16.8443 18.2859 16.6887 18.5303 16.4173C18.8389 16.0745 18.9281 15.9662 19.166 15.6461C19.2892 15.4803 19.4071 15.3241 19.428 15.2989C19.4488 15.2737 19.4908 15.2059 19.5212 15.1482C19.5517 15.0905 19.5884 15.0336 19.6028 15.0217C19.724 14.9223 20.327 13.7608 20.5584 13.181C20.5797 13.1277 20.6152 13.0405 20.6373 12.9872C20.6882 12.8648 20.8273 12.4333 20.8977 12.1798C20.9273 12.0733 20.9671 11.9376 20.986 11.8784C21.0324 11.7333 21.183 10.9046 21.2402 10.479C21.2987 10.0449 21.3004 8.34037 21.2427 7.96356C21.1248 7.19318 21.0922 7.0181 20.9853 6.58213C20.965 6.49924 20.8766 6.20424 20.789 5.92655C20.649 5.48321 20.6293 5.36674 20.627 4.97098L20.6243 4.52028L21.267 3.81807C21.6205 3.43187 21.9342 3.09007 21.9642 3.05855C22.0399 2.97915 21.9924 2.92209 21.8505 2.92209C21.7848 2.92209 21.6261 2.90414 21.4978 2.88218C21.0699 2.80893 20.7069 2.75317 20.4874 2.72703C20.1554 2.68746 20.133 2.66154 20.2401 2.44073C20.2898 2.33842 20.5066 1.89311 20.7221 1.45119C20.9375 1.00927 21.1138 0.633752 21.1138 0.616657C21.1138 0.572607 20.7126 0.608433 19.413 0.768527C18.6949 0.856971 18.4793 0.869113 18.4506 0.822652C18.4351 0.797463 18.213 0.670007 17.9571 0.539409C17.426 0.268308 17.0924 0.158808 16.4393 0.0410839C16.1343 -0.0138597 15.2362 -0.0136439 14.9563 0.0414289ZM16.265 1.73861C16.6164 1.90538 16.851 2.26139 16.851 2.62808C16.851 3.11935 16.3715 3.61104 15.8925 3.61104C15.6881 3.61104 15.2798 3.41788 15.1682 3.26846C15.1233 3.20822 15.0717 3.13954 15.0537 3.11586C14.9156 2.93441 14.8776 2.54158 14.976 2.31375C15.2236 1.74085 15.7627 1.50028 16.265 1.73861Z" fill="#424300"/>
</svg>
