<svg width="36" height="33" viewBox="0 0 36 33" fill="none" xmlns="http://www.w3.org/2000/svg">
<path fill-rule="evenodd" clip-rule="evenodd" d="M24.474 0.0677928C23.7876 0.202936 23.4351 0.290941 23.0296 0.428198C22.5243 0.599347 21.7003 0.982231 21.6674 1.06129C21.6544 1.09229 21.6126 1.11766 21.5744 1.11766C21.5107 1.11766 21.0524 1.41345 20.706 1.67817C20.5165 1.82297 19.4753 2.86466 19.2827 3.10218C19.1989 3.20541 19.0914 3.36394 19.0437 3.45448C18.996 3.54496 18.9344 3.63486 18.9067 3.65424C18.7836 3.74041 18.2614 4.83756 18.0766 5.39814C17.802 6.23085 17.7098 6.62958 17.7098 6.98456C17.7098 7.32468 17.5685 8.03274 17.3972 8.55126C17.2732 8.92639 16.8689 9.79594 16.7911 9.85478C16.7654 9.87416 16.7055 9.96406 16.6578 10.0545C16.4966 10.3604 15.7885 11.1249 15.2789 11.5432C14.7789 11.9537 13.6452 12.5427 12.989 12.733C11.6944 13.1085 10.7026 13.1822 9.518 12.9908C8.52295 12.8301 7.99182 12.664 7.07026 12.226C6.74833 12.073 6.07768 11.684 6.01335 11.6131C5.99398 11.5918 5.86715 11.498 5.73151 11.4047C5.34905 11.1417 4.51691 10.291 4.1465 9.78432C3.7801 9.28313 3.27983 8.31049 3.13165 7.81142C3.07993 7.63703 3.00954 7.40239 2.9753 7.29008C2.94113 7.1777 2.91308 6.99802 2.91308 6.89071C2.91308 6.65262 2.84918 6.47267 2.76462 6.47267C2.67796 6.47267 2.68507 8.76757 2.77406 9.50248C2.90216 10.5607 2.97523 10.9749 3.20888 11.9686C3.31133 12.404 3.83415 14.031 3.8996 14.1176C3.92884 14.1564 3.97662 14.2674 4.00579 14.3643C4.07188 14.584 4.66227 15.8008 4.99026 16.3935C5.25329 16.8688 6.13208 18.1825 6.34339 18.4165C6.41378 18.4944 6.59747 18.7163 6.75164 18.9097C7.11479 19.3652 8.48427 20.7343 8.93747 21.0948C9.13124 21.249 9.30563 21.3931 9.325 21.415C9.34438 21.4369 9.51877 21.5622 9.71254 21.6934C9.9063 21.8247 10.1068 21.9732 10.1579 22.0235C10.2091 22.0738 10.2783 22.1149 10.3115 22.1149C10.3446 22.1149 10.4138 22.1554 10.465 22.2048C10.5873 22.3229 11.6921 22.978 11.9849 23.1061C12.1109 23.1611 12.2139 23.2302 12.2139 23.2595C12.2139 23.2888 12.2463 23.3128 12.2859 23.3128C12.3255 23.3128 12.6298 23.4396 12.9623 23.5946C13.2947 23.7496 13.5956 23.8764 13.6311 23.8764C13.6665 23.8764 13.7506 23.9044 13.8179 23.9387C14.7279 24.4017 16.8108 24.8874 18.6812 25.0729C20.1731 25.2208 22.5826 25.0679 23.7694 24.75C23.8856 24.7189 23.9216 24.7265 23.8751 24.7724C23.7117 24.9336 21.9282 25.5538 21.0039 25.7708C18.6154 26.3314 16.686 26.4127 14.2925 26.0535C13.1364 25.88 11.3512 25.3955 10.5405 25.0351C10.4145 24.9792 10.1926 24.8823 10.0472 24.8201C9.65856 24.6533 8.5908 24.1324 8.54994 24.0895C8.53056 24.0692 8.37202 23.9761 8.19763 23.8826C7.87408 23.7091 6.72649 22.9486 6.47149 22.7386C5.11371 21.6209 4.68982 21.2209 3.94315 20.3534C2.0696 18.1765 1.05172 16.2866 0.195627 13.3954C0.040895 12.873 -0.0535926 14.4795 0.0328627 16.161C0.0924019 17.3178 0.220851 18.2514 0.442521 19.138C0.48374 19.3026 0.545394 19.5564 0.579567 19.7017C0.685751 20.1533 1.07617 21.2769 1.3447 21.9036C1.63514 22.5815 2.31417 23.9166 2.50744 24.1899C2.53626 24.2307 2.72488 24.5176 2.92661 24.8277C3.12827 25.1377 3.31104 25.4072 3.33261 25.4266C3.35424 25.446 3.45845 25.578 3.56421 25.7199C3.66997 25.8619 3.79659 26.0212 3.84563 26.074C3.89467 26.1267 4.10915 26.3749 4.3223 26.6256C4.81383 27.2037 5.29317 27.683 5.87123 28.1745C6.12193 28.3877 6.37017 28.6022 6.42287 28.6512C6.47564 28.7003 6.63496 28.8269 6.77694 28.9326C6.91884 29.0384 7.05089 29.1426 7.07026 29.1642C7.08964 29.1858 7.35915 29.3686 7.66918 29.5702C7.97921 29.772 8.26619 29.9606 8.30692 29.9894C8.89456 30.405 10.9465 31.3379 12.0025 31.6695C12.5761 31.8497 12.7359 31.8935 13.3413 32.0365C14.8877 32.4017 15.574 32.4741 17.4632 32.4709C18.9928 32.4683 19.66 32.4133 20.8101 32.1944C21.1646 32.127 21.3593 32.0841 22.0784 31.915C22.4806 31.8204 23.8696 31.3389 23.9421 31.269C23.9789 31.2335 24.0506 31.2044 24.1013 31.2044C24.3108 31.2044 26.7949 29.9058 26.9402 29.7203C26.9595 29.6956 27.0527 29.6346 27.1471 29.5847C27.2415 29.535 27.3525 29.4663 27.3937 29.4321C27.4349 29.398 27.6906 29.205 27.9618 29.0034C28.4857 28.6142 28.6628 28.4682 29.2238 27.9632C29.668 27.5634 29.9225 27.3089 30.3223 26.8647C30.8273 26.3037 30.9733 26.1266 31.3626 25.6027C31.5641 25.3315 31.7571 25.0758 31.7912 25.0346C31.8254 24.9934 31.8941 24.8824 31.9439 24.788C31.9937 24.6936 32.0538 24.6004 32.0774 24.5811C32.2757 24.4183 33.2625 22.5176 33.6411 21.5689C33.6759 21.4816 33.734 21.339 33.7702 21.2518C33.8534 21.0515 34.0811 20.3455 34.1963 19.9307C34.2448 19.7563 34.3098 19.5343 34.3407 19.4374C34.4167 19.2 34.6631 17.844 34.7568 17.1475C34.8524 16.4371 34.8552 13.6479 34.7608 13.0313C34.568 11.7707 34.5146 11.4842 34.3396 10.7708C34.3063 10.6351 34.1618 10.1524 34.0184 9.698C33.7894 8.97254 33.7571 8.78194 33.7533 8.13434L33.7489 7.39683L34.8006 6.24776C35.379 5.61579 35.8923 5.05648 35.9415 5.0049C36.0654 4.87497 35.9875 4.78161 35.7554 4.78161C35.6478 4.78161 35.3881 4.75223 35.1782 4.71629C34.4781 4.59644 33.8841 4.50519 33.5249 4.46242C32.9815 4.39767 32.9449 4.35525 33.1202 3.99393C33.2014 3.82652 33.5564 3.09781 33.9089 2.37467C34.2615 1.65154 34.5499 1.03705 34.5499 1.00908C34.5499 0.936995 33.8934 0.995618 31.7667 1.25759C30.5917 1.40232 30.2389 1.42219 30.1919 1.34616C30.1665 1.30494 29.8031 1.09638 29.3843 0.882669C28.5152 0.439049 27.9694 0.259868 26.9007 0.0672283C26.4016 -0.0226795 24.932 -0.0223264 24.474 0.0677928ZM26.6154 2.845C27.1905 3.11789 27.5743 3.70046 27.5743 4.3005C27.5743 5.10439 26.7898 5.90898 26.0059 5.90898C25.6715 5.90898 25.0034 5.59289 24.8208 5.3484C24.7472 5.24982 24.6628 5.13744 24.6334 5.09868C24.4074 4.80176 24.3452 4.15895 24.5062 3.78614C24.9114 2.84866 25.7936 2.455 26.6154 2.845Z" fill="#E2D213"/>
</svg>
