<svg width="23" height="24" viewBox="0 0 23 24" fill="none" xmlns="http://www.w3.org/2000/svg">
<path fill-rule="evenodd" clip-rule="evenodd" d="M2.60651 8.65116C2.60651 3.87326 6.47977 0 11.2577 0C16.0356 0 19.9088 3.87326 19.9088 8.65116V9.43714C19.9088 10.2151 20.1391 10.9756 20.5707 11.6229L21.8528 13.5462C23.3409 15.7784 22.2049 18.8124 19.6167 19.5183C14.144 21.0109 8.3714 21.0109 2.89867 19.5183C0.310478 18.8124 -0.825567 15.7784 0.66254 13.5462L1.9447 11.6229C2.37624 10.9756 2.60651 10.2151 2.60651 9.43714V8.65116ZM11.2577 1.67442C7.40453 1.67442 4.28093 4.79801 4.28093 8.65116V9.43714C4.28093 10.5457 3.95281 11.6294 3.3379 12.5517L2.05574 14.475C1.20159 15.7562 1.85366 17.4977 3.33924 17.9029C8.52353 19.3168 13.9918 19.3168 19.1761 17.9029C20.6617 17.4977 21.3138 15.7562 20.4596 14.475L19.1774 12.5518C18.5625 11.6294 18.2344 10.5457 18.2344 9.43714V8.65116C18.2344 4.79801 15.1108 1.67442 11.2577 1.67442Z" fill="#A3A3A3"/>
<path fill-rule="evenodd" clip-rule="evenodd" d="M11.2577 22.3256C9.27393 22.3256 7.62234 21.1317 7.01837 19.5201C6.8561 19.0872 6.37357 18.8677 5.9406 19.03C5.50763 19.1923 5.28818 19.6748 5.45045 20.1078C6.30886 22.3982 8.60316 24 11.2577 24C13.9122 24 16.2065 22.3982 17.0649 20.1078C17.2271 19.6748 17.0077 19.1923 16.5747 19.03C16.1418 18.8677 15.6592 19.0872 15.497 19.5201C14.893 21.1317 13.2414 22.3256 11.2577 22.3256Z" fill="#A3A3A3"/>
</svg>
