<svg width="11" height="11" viewBox="0 0 11 11" fill="none" xmlns="http://www.w3.org/2000/svg">
<path d="M9.35 1.65H8.8V0.55C8.8 0.404131 8.74205 0.264236 8.63891 0.161091C8.53576 0.0579462 8.39587 0 8.25 0C8.10413 0 7.96424 0.0579462 7.86109 0.161091C7.75795 0.264236 7.7 0.404131 7.7 0.55V1.65H3.3V0.55C3.3 0.404131 3.24205 0.264236 3.13891 0.161091C3.03576 0.0579462 2.89587 0 2.75 0C2.60413 0 2.46424 0.0579462 2.36109 0.161091C2.25795 0.264236 2.2 0.404131 2.2 0.55V1.65H1.65C1.21239 1.65 0.792709 1.82384 0.483274 2.13327C0.173839 2.44271 0 2.86239 0 3.3V3.85H11V3.3C11 2.86239 10.8262 2.44271 10.5167 2.13327C10.2073 1.82384 9.78761 1.65 9.35 1.65Z" fill="#5C5C5C"/>
<path d="M0 9.34997C0 9.78758 0.173839 10.2073 0.483274 10.5167C0.792709 10.8261 1.21239 11 1.65 11H9.35C9.78761 11 10.2073 10.8261 10.5167 10.5167C10.8262 10.2073 11 9.78758 11 9.34997V4.94997H0V9.34997Z" fill="#5C5C5C"/>
</svg>
