<svg width="18" height="16" viewBox="0 0 18 16" fill="none" xmlns="http://www.w3.org/2000/svg">
<path fill-rule="evenodd" clip-rule="evenodd" d="M12.0595 0.0334047C11.7213 0.0999964 11.5476 0.14336 11.3478 0.210994C11.0988 0.295327 10.6928 0.483992 10.6766 0.522947C10.6702 0.538223 10.6495 0.550722 10.6307 0.550722C10.5993 0.550722 10.3735 0.696474 10.2028 0.826915C10.1094 0.898263 9.5964 1.41155 9.50151 1.52859C9.46023 1.57946 9.40725 1.65757 9.38374 1.70219C9.36024 1.74677 9.32986 1.79107 9.31625 1.80062C9.25559 1.84308 8.99825 2.38369 8.90719 2.65992C8.77188 3.07023 8.72647 3.26671 8.72647 3.44163C8.72647 3.60922 8.65686 3.95811 8.57242 4.21361C8.51132 4.39846 8.3121 4.82693 8.27377 4.85592C8.26113 4.86547 8.23158 4.90977 8.20808 4.95435C8.12864 5.10506 7.77975 5.48177 7.52866 5.6879C7.28225 5.89014 6.72365 6.18039 6.40028 6.27417C5.76238 6.45919 5.27367 6.4955 4.68997 6.40117C4.19966 6.32198 3.93795 6.24018 3.48385 6.02433C3.32522 5.94892 2.99476 5.75727 2.96307 5.72234C2.95352 5.71182 2.89102 5.66561 2.82419 5.61964C2.63573 5.49003 2.2257 5.07087 2.04318 4.8212C1.86264 4.57424 1.61613 4.09498 1.54311 3.84906C1.51763 3.76313 1.48295 3.64751 1.46607 3.59217C1.44923 3.53679 1.43541 3.44826 1.43541 3.39538C1.43541 3.27806 1.40392 3.18939 1.36226 3.18939C1.31956 3.18939 1.32306 4.3202 1.36691 4.68232C1.43003 5.20377 1.46604 5.40785 1.58117 5.8975C1.63165 6.11206 1.88927 6.91373 1.92152 6.95644C1.93593 6.97553 1.95947 7.03022 1.97384 7.07796C2.00641 7.18621 2.29732 7.78581 2.45894 8.07784C2.58855 8.31205 3.02157 8.9594 3.12569 9.07466C3.16038 9.11306 3.25089 9.22243 3.32685 9.3177C3.5058 9.54216 4.1806 10.2168 4.40392 10.3944C4.4994 10.4704 4.58533 10.5414 4.59487 10.5522C4.60442 10.563 4.69035 10.6247 4.78583 10.6894C4.88131 10.7541 4.98008 10.8273 5.00529 10.852C5.03053 10.8768 5.06459 10.8971 5.08094 10.8971C5.0973 10.8971 5.13136 10.917 5.1566 10.9413C5.21687 10.9996 5.76123 11.3224 5.90553 11.3855C5.96761 11.4126 6.01837 11.4466 6.01837 11.4611C6.01837 11.4755 6.03434 11.4873 6.05385 11.4873C6.07336 11.4873 6.22331 11.5498 6.38712 11.6262C6.55093 11.7026 6.69921 11.7651 6.71668 11.7651C6.73414 11.7651 6.77556 11.7788 6.80872 11.7957C7.25715 12.0239 8.28349 12.2632 9.20511 12.3546C9.94026 12.4275 11.1275 12.3522 11.7123 12.1955C11.7696 12.1802 11.7873 12.1839 11.7644 12.2065C11.6839 12.286 10.8051 12.5916 10.3496 12.6985C9.17269 12.9747 8.222 13.0148 7.04259 12.8378C6.47295 12.7523 5.5933 12.5136 5.19378 12.336C5.13174 12.3084 5.02237 12.2607 4.95075 12.23C4.75923 12.1479 4.2331 11.8912 4.21296 11.8701C4.20341 11.8601 4.12529 11.8142 4.03936 11.7681C3.87993 11.6826 3.31446 11.3078 3.18881 11.2044C2.51977 10.6536 2.3109 10.4566 1.94298 10.0291C1.01979 8.95641 0.518234 8.02517 0.0963946 6.60056C0.0201509 6.34312 -0.0264076 7.13472 0.016193 7.9633C0.0455308 8.53332 0.108824 8.99332 0.218051 9.43019C0.238362 9.51133 0.268741 9.63635 0.28558 9.70794C0.337902 9.93049 0.530282 10.4842 0.662597 10.7929C0.80571 11.127 1.1403 11.7849 1.23554 11.9195C1.24974 11.9396 1.34268 12.081 1.44208 12.2338C1.54145 12.3865 1.63151 12.5193 1.64213 12.5289C1.65279 12.5384 1.70414 12.6035 1.75626 12.6734C1.80837 12.7434 1.87076 12.8219 1.89492 12.8479C1.91909 12.8739 2.02478 12.9962 2.1298 13.1197C2.372 13.4045 2.6082 13.6407 2.89304 13.8829C3.01657 13.988 3.13888 14.0937 3.16485 14.1178C3.19086 14.142 3.26936 14.2044 3.33932 14.2565C3.40924 14.3086 3.47431 14.36 3.48385 14.3706C3.4934 14.3812 3.6262 14.4713 3.77897 14.5707C3.93173 14.6701 4.07315 14.763 4.09321 14.7772C4.38277 14.982 5.39387 15.4417 5.91421 15.6051C6.19686 15.6939 6.27557 15.7155 6.57387 15.7859C7.33589 15.9659 7.67406 16.0015 8.60496 16C9.35868 15.9987 9.6874 15.9716 10.2541 15.8637C10.4288 15.8305 10.5248 15.8093 10.8791 15.726C11.0772 15.6794 11.7617 15.4422 11.7974 15.4077C11.8155 15.3902 11.8509 15.3759 11.8759 15.3759C11.9791 15.3759 13.2031 14.736 13.2747 14.6446C13.2843 14.6324 13.3301 14.6024 13.3767 14.5778C13.4232 14.5533 13.4779 14.5195 13.4982 14.5026C13.5185 14.4858 13.6445 14.3907 13.7781 14.2914C14.0363 14.0996 14.1235 14.0276 14.4 13.7788C14.6188 13.5818 14.7442 13.4564 14.9412 13.2375C15.1901 12.9611 15.262 12.8738 15.4538 12.6157C15.5532 12.482 15.6482 12.3561 15.6651 12.3357C15.6819 12.3154 15.7157 12.2608 15.7403 12.2142C15.7648 12.1677 15.7944 12.1218 15.8061 12.1123C15.9038 12.0321 16.39 11.0955 16.5766 10.628C16.5937 10.585 16.6223 10.5148 16.6402 10.4718C16.6812 10.3731 16.7934 10.0252 16.8502 9.82078C16.874 9.73485 16.9061 9.62548 16.9213 9.57775C16.9587 9.46074 17.0801 8.79257 17.1263 8.44937C17.1734 8.09936 17.1748 6.72496 17.1283 6.42114C17.0333 5.79997 17.007 5.6588 16.9208 5.30727C16.9044 5.24044 16.8331 5.00257 16.7625 4.77867C16.6496 4.4212 16.6337 4.32728 16.6319 4.00818L16.6297 3.64477L17.1479 3.07857C17.4329 2.76717 17.6859 2.49157 17.7101 2.46615C17.7711 2.40213 17.7328 2.35613 17.6184 2.35613C17.5654 2.35613 17.4374 2.34165 17.334 2.32394C16.989 2.26488 16.6963 2.21992 16.5193 2.19885C16.2516 2.16694 16.2335 2.14604 16.3199 1.968C16.3599 1.88551 16.5348 1.52644 16.7085 1.17011C16.8823 0.813791 17.0244 0.511004 17.0244 0.49722C17.0244 0.461702 16.7009 0.490588 15.653 0.619675C15.074 0.690988 14.9002 0.700779 14.877 0.663317C14.8645 0.643006 14.6854 0.540237 14.479 0.434933C14.0508 0.21634 13.7818 0.128049 13.2553 0.0331266C13.0093 -0.0111753 12.2852 -0.0110013 12.0595 0.0334047ZM13.1147 1.40187C13.3981 1.53633 13.5872 1.82339 13.5872 2.11906C13.5872 2.51518 13.2006 2.91164 12.8144 2.91164C12.6496 2.91164 12.3204 2.75589 12.2304 2.63541C12.1941 2.58684 12.1525 2.53146 12.138 2.51236C12.0267 2.36606 11.996 2.04931 12.0754 1.86561C12.275 1.40367 12.7097 1.2097 13.1147 1.40187Z" fill="#D1C100"/>
</svg>
