<svg width="24" height="24" viewBox="0 0 24 24" fill="none" xmlns="http://www.w3.org/2000/svg">
<path fill-rule="evenodd" clip-rule="evenodd" d="M6.06917 5.05308C4.52592 5.75851 3.39535 7.43637 3.39535 9.43718C3.39535 11.4813 4.23183 13.0568 5.43096 14.4071C6.41928 15.52 7.61566 16.4423 8.78244 17.3418C9.05957 17.5555 9.33502 17.7678 9.60562 17.9812C10.095 18.3669 10.5315 18.7055 10.9522 18.9513C11.3732 19.1973 11.712 19.3096 12 19.3096C12.288 19.3096 12.6268 19.1973 13.0478 18.9513C13.4685 18.7055 13.905 18.3669 14.3944 17.9812C14.665 17.7678 14.9404 17.5555 15.2176 17.3418C16.3843 16.4423 17.5807 15.52 18.569 14.4071C19.7682 13.0568 20.6047 11.4813 20.6047 9.43718C20.6047 7.43637 19.4741 5.75851 17.9308 5.05308C16.4316 4.36776 14.4171 4.54925 12.5027 6.53824C12.3711 6.67488 12.1897 6.7521 12 6.7521C11.8103 6.7521 11.6289 6.67488 11.4973 6.53824C9.58294 4.54925 7.56844 4.36776 6.06917 5.05308ZM12 5.08529C9.84925 3.16103 7.44089 2.89185 5.48908 3.78403C3.42764 4.72632 2 6.91433 2 9.43718C2 11.9167 3.03302 13.8083 4.38764 15.3337C5.47244 16.5552 6.80021 17.5775 7.97286 18.4804C8.23869 18.6851 8.49654 18.8836 8.74178 19.077C9.21828 19.4526 9.72981 19.8532 10.2482 20.1561C10.7664 20.4589 11.3578 20.705 12 20.705C12.6422 20.705 13.2336 20.4589 13.7518 20.1561C14.2702 19.8532 14.7817 19.4526 15.2582 19.077C15.5035 18.8836 15.7613 18.6851 16.0271 18.4804C17.1998 17.5775 18.5276 16.5552 19.6124 15.3337C20.967 13.8083 22 11.9167 22 9.43718C22 6.91433 20.5724 4.72632 18.5109 3.78403C16.5591 2.89185 14.1508 3.16103 12 5.08529Z" fill="white"/>
</svg>
