<svg width="26" height="19" viewBox="0 0 26 19" fill="none" xmlns="http://www.w3.org/2000/svg">
<g clip-path="url(#clip0_9_4551)">
<rect width="26" height="19" rx="2" fill="white"/>
<path fill-rule="evenodd" clip-rule="evenodd" d="M0 0H11.1429V8.86667H0V0Z" fill="#1A47B8"/>
<path fill-rule="evenodd" clip-rule="evenodd" d="M11.1429 0V1.26667H26V0H11.1429ZM11.1429 2.53333V3.8H26V2.53333H11.1429ZM11.1429 5.06667V6.33333H26V5.06667H11.1429ZM11.1429 7.6V8.86667H26V7.6H11.1429ZM0 10.1333V11.4H26V10.1333H0ZM0 12.6667V13.9333H26V12.6667H0ZM0 15.2V16.4667H26V15.2H0ZM0 17.7333V19H26V17.7333H0Z" fill="#F93939"/>
<path fill-rule="evenodd" clip-rule="evenodd" d="M1.2381 1.26666V2.53333H2.47619V1.26666H1.2381ZM3.71429 1.26666V2.53333H4.95238V1.26666H3.71429ZM6.19048 1.26666V2.53333H7.42857V1.26666H6.19048ZM8.66667 1.26666V2.53333H9.90477V1.26666H8.66667ZM7.42857 2.53333V3.8H8.66667V2.53333H7.42857ZM4.95238 2.53333V3.8H6.19048V2.53333H4.95238ZM2.47619 2.53333V3.8H3.71429V2.53333H2.47619ZM1.2381 3.8V5.06666H2.47619V3.8H1.2381ZM3.71429 3.8V5.06666H4.95238V3.8H3.71429ZM6.19048 3.8V5.06666H7.42857V3.8H6.19048ZM8.66667 3.8V5.06666H9.90477V3.8H8.66667ZM1.2381 6.33333V7.6H2.47619V6.33333H1.2381ZM3.71429 6.33333V7.6H4.95238V6.33333H3.71429ZM6.19048 6.33333V7.6H7.42857V6.33333H6.19048ZM8.66667 6.33333V7.6H9.90477V6.33333H8.66667ZM7.42857 5.06666V6.33333H8.66667V5.06666H7.42857ZM4.95238 5.06666V6.33333H6.19048V5.06666H4.95238ZM2.47619 5.06666V6.33333H3.71429V5.06666H2.47619Z" fill="white"/>
</g>
<defs>
<clipPath id="clip0_9_4551">
<rect width="26" height="19" rx="2" fill="white"/>
</clipPath>
</defs>
</svg>
