<svg width="24" height="24" viewBox="0 0 24 24" fill="none" xmlns="http://www.w3.org/2000/svg">
<path fill-rule="evenodd" clip-rule="evenodd" d="M6.06917 5.05311C4.52592 5.75854 3.39535 7.4364 3.39535 9.43721C3.39535 11.4813 4.23183 13.0569 5.43096 14.4071C6.41928 15.52 7.61566 16.4424 8.78244 17.3419C9.05957 17.5555 9.33502 17.7679 9.60562 17.9812C10.095 18.3669 10.5315 18.7055 10.9522 18.9514C11.3732 19.1974 11.712 19.3097 12 19.3097C12.288 19.3097 12.6268 19.1974 13.0478 18.9514C13.4685 18.7055 13.905 18.3669 14.3944 17.9812C14.665 17.7679 14.9404 17.5555 15.2176 17.3419C16.3843 16.4424 17.5807 15.52 18.569 14.4071C19.7682 13.0569 20.6047 11.4813 20.6047 9.43721C20.6047 7.4364 19.4741 5.75854 17.9308 5.05311C16.4316 4.3678 14.4171 4.54928 12.5027 6.53827C12.3711 6.67491 12.1897 6.75213 12 6.75213C11.8103 6.75213 11.6289 6.67491 11.4973 6.53827C9.58294 4.54928 7.56844 4.3678 6.06917 5.05311ZM12 5.08532C9.84925 3.16107 7.44089 2.89188 5.48908 3.78406C3.42764 4.72635 2 6.91436 2 9.43721C2 11.9168 3.03302 13.8083 4.38764 15.3337C5.47244 16.5552 6.80021 17.5775 7.97286 18.4805C8.23869 18.6851 8.49654 18.8837 8.74178 19.077C9.21828 19.4526 9.72981 19.8532 10.2482 20.1561C10.7664 20.4589 11.3578 20.705 12 20.705C12.6422 20.705 13.2336 20.4589 13.7518 20.1561C14.2702 19.8532 14.7817 19.4526 15.2582 19.077C15.5035 18.8837 15.7613 18.6851 16.0271 18.4804C17.1998 17.5775 18.5276 16.5552 19.6124 15.3337C20.967 13.8083 22 11.9168 22 9.43721C22 6.91436 20.5724 4.72635 18.5109 3.78406C16.5591 2.89188 14.1508 3.16107 12 5.08532Z" fill="#7B7B7B"/>
</svg>
