<svg width="24" height="24" viewBox="0 0 24 24" fill="none" xmlns="http://www.w3.org/2000/svg">
<path fill-rule="evenodd" clip-rule="evenodd" d="M4.83127 4.56851C2.88496 6.44642 1.67442 9.08184 1.67442 12C1.67442 17.7027 6.29734 22.3256 12 22.3256C12.1423 22.3256 12.284 22.3227 12.4249 22.317C12.1956 21.2994 12.1645 19.9313 12.864 18.6132C13.5919 17.2414 15.0991 16.6462 16.2071 16.3738C16.7877 16.2311 17.3256 16.1607 17.7166 16.1256C17.9131 16.108 18.0751 16.0991 18.1899 16.0945C18.2474 16.0923 18.2933 16.0911 18.326 16.0905L18.365 16.0899L18.3744 16.0899C20.2414 16.0704 21.0825 15.4632 21.5289 14.8841C21.9102 14.3893 22.0542 13.8945 22.2002 13.3925C22.2188 13.3287 22.2374 13.2647 22.2565 13.2006C22.3021 12.8068 22.3256 12.4061 22.3256 12C22.3256 9.18242 21.1971 6.62843 19.3673 4.76537C19.3576 4.80339 19.3476 4.84086 19.3375 4.8777C19.1558 5.5396 18.8623 6.21895 18.5434 6.70297C18.2578 7.13652 17.7036 7.57387 17.2437 7.90431C16.941 8.1218 16.6258 8.30657 16.34 8.47131C16.3055 8.49123 16.2714 8.51082 16.2378 8.53016C15.9832 8.67659 15.7542 8.8083 15.5337 8.95393C15.0517 9.27242 14.6787 9.61521 14.4277 10.1328C14.3398 10.314 14.3371 10.4909 14.3891 10.6802C14.4723 10.9833 14.529 11.3243 14.5299 11.6719C14.5318 12.3963 14.1628 12.9843 13.6885 13.3665C13.2199 13.7442 12.6074 13.9602 11.9909 13.9534C9.25008 13.9235 7.56494 11.6992 7.34268 9.22547C7.25426 8.24141 6.82283 7.246 6.27807 6.37602C5.77778 5.57704 5.21408 4.93502 4.83127 4.56851ZM6.13401 3.50134C6.59732 3.96795 7.17862 4.65914 7.69723 5.48739C8.31958 6.48129 8.88976 7.73313 9.01038 9.07563C9.1789 10.9513 10.3645 12.2612 12.0091 12.2791C12.2353 12.2816 12.4702 12.1978 12.6378 12.0627C12.7998 11.9322 12.8558 11.7944 12.8555 11.6762C12.8551 11.5026 12.8258 11.3107 12.7744 11.1235C12.6392 10.631 12.6198 10.0233 12.9211 9.40209C13.3509 8.516 13.9878 7.96842 14.6107 7.55689C14.8777 7.38051 15.1546 7.22141 15.4044 7.07783C15.4381 7.05847 15.4713 7.0394 15.5039 7.02061C15.7888 6.85639 16.0389 6.70816 16.2667 6.54449C16.7479 6.19875 17.0523 5.92276 17.1452 5.78173C17.3489 5.47261 17.578 4.96223 17.7229 4.43442C17.8377 4.01622 17.8695 3.69529 17.8588 3.49636C16.1942 2.34732 14.1757 1.67442 12 1.67442C9.82118 1.67442 7.79998 2.34926 6.13401 3.50134ZM23.921 13.3845C23.9732 12.9302 24 12.4683 24 12C24 5.37258 18.6274 0 12 0C5.37258 0 0 5.37258 0 12C0 18.6274 5.37258 24 12 24C18.0953 24 23.1292 19.4555 23.8982 13.57C23.9186 13.499 23.9363 13.4401 23.9521 13.3955L23.921 13.3845ZM20.8238 17.3655C20.1589 17.6092 19.3576 17.7541 18.3919 17.7642L18.3831 17.7643V17.7642L18.3802 17.7643L18.3572 17.7646C18.3355 17.765 18.3013 17.7659 18.2561 17.7676C18.1656 17.7712 18.0317 17.7785 17.8663 17.7934C17.5335 17.8232 17.0832 17.8827 16.6068 17.9999C15.6007 18.2471 14.7181 18.6912 14.343 19.398C13.8347 20.3561 13.9071 21.3986 14.0968 22.1126C16.9422 21.5256 19.3598 19.768 20.8238 17.3655Z" fill="#A3A3A3"/>
</svg>
