<svg width="18" height="18" viewBox="0 0 18 18" fill="none" xmlns="http://www.w3.org/2000/svg">
<path fill-rule="evenodd" clip-rule="evenodd" d="M14.399 0.617835C15.2228 -0.205945 16.5584 -0.205945 17.3822 0.617835C18.2059 1.44162 18.2059 2.77723 17.3822 3.60101L13.8226 7.16053C13.8141 7.16907 13.8057 7.17749 13.7974 7.1858C13.6041 7.37911 13.4696 7.51366 13.3188 7.63131C13.1414 7.76966 12.9495 7.88827 12.7464 7.98504C12.5737 8.06735 12.3932 8.12748 12.1339 8.21388C12.1228 8.21759 12.1115 8.22135 12.1 8.22517L10.5616 8.73796C10.1924 8.86103 9.78541 8.76494 9.51023 8.48976C9.23505 8.21458 9.13897 7.80754 9.26203 7.43835L9.77482 5.89998C9.77864 5.88853 9.7824 5.87724 9.78611 5.86609C9.87251 5.60676 9.93265 5.42627 10.0149 5.25357C10.1117 5.05051 10.2303 4.85859 10.3687 4.68122C10.4863 4.53038 10.6209 4.39587 10.8142 4.20262C10.8225 4.19431 10.8309 4.18589 10.8395 4.17736L14.399 0.617835ZM16.4942 1.50583C16.1608 1.17248 15.6203 1.17248 15.287 1.50583L15.1767 1.6161C15.181 1.6297 15.1857 1.6437 15.1907 1.65808C15.2591 1.85537 15.3892 2.11681 15.6362 2.36382C15.8832 2.61083 16.1446 2.74087 16.3419 2.80932C16.3563 2.81431 16.3703 2.81896 16.3839 2.82329L16.4942 2.71301C16.8275 2.37966 16.8275 1.83918 16.4942 1.50583ZM15.4346 3.77262C15.2115 3.64757 14.9753 3.47896 14.7482 3.25181C14.521 3.02467 14.3524 2.78846 14.2274 2.56543L11.7275 5.06535C11.4995 5.29326 11.4232 5.37115 11.3589 5.45357C11.2767 5.55902 11.2061 5.67312 11.1486 5.79384C11.1036 5.8882 11.0681 5.99133 10.9662 6.2971L10.7776 6.86297L11.137 7.22242L11.7029 7.0338C12.0087 6.93188 12.1118 6.89636 12.2061 6.85139C12.3269 6.79385 12.441 6.72334 12.5464 6.64109C12.6288 6.5768 12.7067 6.50045 12.9346 6.27254L15.4346 3.77262Z" fill="#424300"/>
<path fill-rule="evenodd" clip-rule="evenodd" d="M9 3.76712e-07L8.95196 1.77106e-07C7.01935 -1.06016e-05 5.50481 -1.91372e-05 4.3231 0.158858C3.11356 0.321477 2.15912 0.660832 1.40997 1.40997C0.660832 2.15912 0.321477 3.11356 0.158858 4.3231C-1.91372e-05 5.50481 -1.06016e-05 7.01935 1.77105e-07 8.95196V9.04804C-1.06016e-05 10.9806 -1.91372e-05 12.4952 0.158858 13.6769C0.321477 14.8864 0.660832 15.8409 1.40997 16.59C2.15912 17.3392 3.11356 17.6785 4.3231 17.8411C5.50481 18 7.01936 18 8.95197 18H9.04803C10.9806 18 12.4952 18 13.6769 17.8411C14.8864 17.6785 15.8409 17.3392 16.59 16.59C17.3392 15.8409 17.6785 14.8864 17.8411 13.6769C18 12.4952 18 10.9806 18 9.04803V9C18 8.65322 17.7189 8.37209 17.3721 8.37209C17.0253 8.37209 16.7442 8.65322 16.7442 9C16.7442 10.9911 16.7429 12.4212 16.5965 13.5096C16.5908 13.5525 16.5848 13.5947 16.5786 13.6363L14.2562 11.5462C13.1683 10.5671 11.5482 10.4696 10.3507 11.3111L10.1011 11.4866C9.68499 11.779 9.11893 11.7299 8.75934 11.3703L5.16794 7.77895C4.21736 6.82838 2.69258 6.7776 1.68087 7.66284L1.25663 8.03405C1.26044 6.53354 1.28197 5.39416 1.40347 4.49044C1.54737 3.42015 1.82105 2.77489 2.29797 2.29797C2.77489 1.82105 3.42015 1.54737 4.49044 1.40347C5.57879 1.25715 7.00893 1.25581 9 1.25581C9.34678 1.25581 9.62791 0.974691 9.62791 0.627907C9.62791 0.281124 9.34678 3.76712e-07 9 3.76712e-07ZM1.40347 13.5096C1.54737 14.5799 1.82105 15.2251 2.29797 15.702C2.77489 16.179 3.42015 16.4526 4.49044 16.5965C5.57879 16.7429 7.00893 16.7442 9 16.7442C10.9911 16.7442 12.4212 16.7429 13.5096 16.5965C14.5799 16.4526 15.2251 16.179 15.702 15.702C15.9059 15.4981 16.0727 15.2635 16.208 14.978C16.1754 14.9581 16.1442 14.9349 16.1148 14.9085L13.4161 12.4796C12.7633 11.8921 11.7913 11.8336 11.0728 12.3386L10.8231 12.514C9.90779 13.1573 8.66246 13.0495 7.87134 12.2583L4.27994 8.66695C3.79687 8.18387 3.02197 8.15806 2.50783 8.60794L1.25613 9.70316C1.25829 11.3345 1.27498 12.5538 1.40347 13.5096Z" fill="#424300"/>
</svg>
